<?xml version="1.0" encoding="utf-8"?>
<!-- Svg Vector Icons : http://www.onlinewebfonts.com/icon -->
<!DOCTYPE svg PUBLIC "-//W3C//DTD SVG 1.1//EN" "http://www.w3.org/Graphics/SVG/1.1/DTD/svg11.dtd">
<svg version="1.1" xmlns="http://www.w3.org/2000/svg" xmlns:xlink="http://www.w3.org/1999/xlink" x="0px" y="0px" viewBox="0 0 1000 1000" enable-background="new 0 0 1000 1000" xml:space="preserve">
<metadata> Svg Vector Icons : http://www.onlinewebfonts.com/icon </metadata>
<g><g transform="translate(0.000000,511.000000) scale(0.100000,-0.100000)"><path d="M3251.5,4942.1c-243.3-92-486.6-304.6-580.5-505.8c-44.1-95.8-51.7-136-51.7-283.5c1.9-195.4,30.7-304.6,145.6-526.9C3027.4,3118.2,3763,2415.1,4698,1777.2c258.6-176.3,298.9-210.7,153.3-130.3c-526.9,289.3-1471.3,655.2-2038.4,791.2c-425.3,101.5-586.2,122.6-988.6,122.6c-342.9,0-388.9-3.8-565.2-51.7c-304.6-80.5-486.6-182-691.6-387c-153.3-153.3-187.8-199.2-272-373.6C215,1581.8,100,1231.2,100,1148.8c0-11.5,53.6,32.6,116.9,99.6c427.2,438.7,1026.9,657.1,1933.1,701.2c728,36.4,1881.3-137.9,2845-429.1c103.5-32.6,191.6-55.6,193.5-53.6c1.9,1.9-118.8,95.8-266.3,206.9c-459.8,344.8-754.8,601.6-1134.2,982.8c-461.7,463.6-659,735.7-745.3,1025c-80.5,272.1,9.6,473.2,268.2,603.5c664.8,331.4,1249.1-335.3,1657.2-1892.8c88.1-337.2,82.4-229.9-13.4,208.8c-272,1266.4-682,2090.2-1151.4,2320.1C3648.1,4997.7,3420.1,5007.2,3251.5,4942.1z"/><path d="M5780.4,4367.4c-128.4-42.2-187.7-82.4-281.6-182c-187.7-199.3-298.9-524.9-360.2-1048c-24.9-208.8-28.7-1002-3.8-1245.3c13.4-151.3,15.3-149.4,28.7,153.3c36.4,745.3,116.9,1178.2,285.5,1523.1c101.5,208.8,224.2,331.4,373.6,375.5c118.8,34.5,199.2,26.8,354.4-30.7c630.3-235.6,364-1042.2-729.9-2222.3c-166.7-180.1-189.7-210.7-126.4-174.3c768.2,457.9,1394.7,731.8,2009.7,883.2c1026.9,252.9,1800.9,90,2312.4-490.5c63.2-72.8,145.6-180.1,182-241.4c38.3-61.3,70.9-111.1,74.7-111.1s-11.5,63.2-32.6,139.8c-260.5,925.3-846.8,1369.8-1689.8,1281.7c-388.9-42.1-752.9-157.1-1237.6-388.9c-406.2-197.3-929.2-517.3-1285.5-789.3c-38.3-28.7,70.9,88.1,241.4,260.5c331.4,333.4,480.9,509.6,651.4,762.5c208.8,310.4,304.6,567.1,304.6,806.6c-1.9,252.9-130.3,452.1-383.2,595.8C6221,4363.5,5943.2,4421,5780.4,4367.4z"/><path d="M5046.6,2055c0-26.8,3.8-36.4,9.6-23c3.8,11.5,3.8,34.5,0,47.9C5050.5,2091.4,5046.6,2081.8,5046.6,2055z"/><path d="M1077.1,378.6V-684.7l1883.2,3.8l1881.3,5.7l5.7,1059.4l3.8,1057.5H2964.2H1077.1V378.6z"/><path d="M5330.2,378.6V-684.7h1877.5h1877.5V378.6v1063.3H7207.7H5330.2V378.6z"/><path d="M1575.2-2964.5v-1800.9h1638h1638l-3.8,1797l-5.7,1795.1l-1632.3,5.8l-1634.2,3.8V-2964.5z"/><path d="M5330.2-2964.5v-1800.9h1638h1638v1800.9v1800.9h-1638h-1638V-2964.5z"/></g></g>
</svg>